<svg version="1.1" xmlns="http://www.w3.org/2000/svg" width="60" height="60" viewBox="0 0 32 32">
<path d="M4.48 3.84c-2.467 0-4.48 2.013-4.48 4.48v14.72c0 1.053 0.867 1.92 1.92 1.92h2.62c0.305 1.815 1.882 3.2 3.78 3.2s3.475-1.385 3.78-3.2h5.92c0.473 0 0.895-0.2 1.22-0.5 0.332 0.292 0.757 0.497 1.24 0.5h1.34c0.305 1.815 1.882 3.2 3.78 3.2s3.475-1.385 3.78-3.2h0.7c1.062 0 1.92-0.858 1.92-1.92v-5.52c0-1.466-1.020-2.76-1.020-2.76h-0.020l-2.64-3.52v-0.019l-0.020-0.020c-0.148-0.183-0.292-0.346-0.443-0.502l0.002 0.002c0.982-0.48 1.445-1.8 0.78-2.8l-1.36-2.060c-0.82-1.211-2.188-1.998-3.74-2h-0zM4.48 5.12h19.060c0.001 0 0.003 0 0.005 0 1.103 0 2.075 0.559 2.649 1.409l0.007 0.011 1.38 2.060c0.302 0.454 0.007 1-0.54 1h-6.56c-1.062 0-1.92 0.858-1.92 1.92v7.040h-17.28v-10.24c0-1.775 1.425-3.2 3.2-3.2zM4.48 7.040c-0.7 0-1.28 0.58-1.28 1.28v6.4c0 0.7 0.58 1.28 1.28 1.28h10.24c0.7 0 1.28-0.58 1.28-1.28v-6.4c0-0.7-0.58-1.28-1.28-1.28zM19.080 7.040c-0.353 0.032-0.613 0.348-0.58 0.7s0.348 0.612 0.7 0.58h5.12c0.23 0.003 0.445-0.118 0.563-0.317 0.054-0.093 0.086-0.204 0.086-0.323s-0.032-0.23-0.088-0.326l0.002 0.003c-0.118-0.2-0.333-0.32-0.563-0.317h-5.24zM4.48 8.32h10.24v6.4h-10.24zM20.48 10.88h2.56v5.76c0 0.7 0.58 1.28 1.28 1.28h6.4v5.12c0 0.237-0.403 0.64-0.64 0.64h-0.7c-0.305-1.815-1.882-3.2-3.78-3.2s-3.475 1.385-3.78 3.2h-1.34c-0.118 0-0.303-0.083-0.44-0.22-0.136-0.138-0.2-0.305-0.2-0.42v-11.52c0-0.237 0.403-0.64 0.64-0.64zM24.32 10.88h1.28c0.502 0 1.213 0.54 1.7 1.12 0.005 0.008 0.015 0.013 0.020 0.020l2.62 3.5s0.268 0.53 0.5 1.12h-6.12zM1.28 19.84h17.28v3.3c0 0.001 0 0.002 0 0.003 0 0.297-0.241 0.538-0.538 0.538-0.001 0-0.002 0-0.003 0h-5.92c-0.305-1.815-1.882-3.2-3.78-3.2s-3.475 1.385-3.78 3.2h-2.62c-0.352 0-0.64-0.288-0.64-0.64zM8.32 21.76c1.423 0 2.56 1.137 2.56 2.56s-1.137 2.56-2.56 2.56-2.56-1.137-2.56-2.56 1.137-2.56 2.56-2.56zM25.6 21.76c1.423 0 2.56 1.137 2.56 2.56s-1.137 2.56-2.56 2.56-2.56-1.137-2.56-2.56 1.137-2.56 2.56-2.56z"></path>
</svg>
